<?xml version="1.0" standalone="no"?>
<!DOCTYPE svg PUBLIC "-//W3C//DTD SVG 20010904//EN"
 "http://www.w3.org/TR/2001/REC-SVG-20010904/DTD/svg10.dtd">
<svg version="1.0" xmlns="http://www.w3.org/2000/svg"
 width="1024.000000pt" height="1024.000000pt" viewBox="0 0 1024.000000 1024.000000"
 preserveAspectRatio="xMidYMid meet">

<g transform="translate(0.000000,1024.000000) scale(0.100000,-0.100000)"
fill="#000000" stroke="none">
<path d="M453 8307 c-3 -5 -2 -11 2 -15 41 -40 447 -464 493 -516 l62 -68 1
-2847 c1 -1565 1 -2849 0 -2854 -1 -8 20 -100 25 -106 2 -2 47 37 101 87 249
228 391 356 518 467 76 66 190 168 254 226 64 58 129 116 145 130 59 48 133
114 211 186 l80 75 5 721 5 722 76 3 75 3 135 -143 c73 -79 186 -197 249 -264
63 -66 183 -192 265 -280 83 -87 197 -209 255 -269 58 -61 163 -174 235 -250
71 -77 184 -196 250 -265 66 -69 189 -198 274 -288 l154 -162 949 0 c597 0
948 4 946 10 -3 9 -187 205 -658 700 -124 131 -333 353 -465 495 -132 142
-296 317 -365 389 -69 73 -172 184 -229 247 -58 62 -186 200 -286 304 -100
105 -201 213 -225 240 -24 28 -120 127 -212 221 -92 94 -168 174 -168 178 0 4
93 105 208 225 255 268 562 597 621 665 24 28 151 162 283 299 l240 247 1167
-3 c821 -2 1182 -7 1221 -15 113 -23 239 -66 292 -99 21 -13 40 -23 42 -23 10
0 111 -71 163 -116 154 -129 279 -306 350 -493 57 -152 74 -257 80 -521 13
-541 -43 -825 -215 -1095 -57 -88 -228 -259 -308 -306 -72 -43 -172 -84 -267
-110 -63 -18 -107 -19 -685 -17 l-617 3 -3 1238 -2 1237 -594 0 c-503 0 -595
-2 -599 -14 -3 -8 -7 -493 -8 -1079 l-2 -1065 62 -71 c89 -104 118 -137 196
-221 39 -42 97 -107 130 -145 33 -38 87 -98 120 -134 33 -36 82 -93 110 -126
27 -33 79 -92 115 -130 36 -39 99 -109 140 -155 41 -46 125 -138 186 -205 60
-66 126 -138 145 -159 70 -81 236 -262 300 -328 l65 -68 540 1 c296 0 568 4
604 9 36 5 99 13 140 19 67 9 140 26 265 61 55 15 90 28 163 62 35 15 67 28
70 28 15 0 218 111 283 155 321 213 565 465 774 800 85 136 125 213 176 335
22 52 44 104 49 115 46 103 114 373 145 575 32 210 41 882 15 1135 -55 545
-216 978 -505 1364 -38 52 -80 108 -91 125 -30 43 -296 300 -377 364 -257 204
-606 389 -887 471 -135 39 -144 42 -200 52 -234 43 -220 43 -1820 43 -1260 1
-1529 -1 -1549 -12 -12 -8 -51 -44 -85 -80 -33 -37 -95 -103 -136 -147 -42
-44 -118 -127 -170 -185 -52 -58 -128 -141 -170 -185 -41 -44 -111 -120 -155
-169 -44 -49 -85 -94 -90 -100 -6 -6 -42 -45 -80 -86 -39 -42 -104 -113 -145
-160 -41 -47 -111 -123 -155 -170 -44 -47 -100 -108 -125 -135 -25 -28 -100
-109 -165 -181 -66 -72 -156 -170 -200 -219 -44 -49 -109 -121 -145 -160 -36
-38 -82 -90 -102 -114 -72 -85 -67 -154 -68 1026 0 714 -4 1061 -11 1068 -12
12 -1878 14 -1886 2z m1830 -56 c-4 -3 -381 -4 -838 -1 -456 3 -797 6 -757 8
40 1 71 6 68 10 -3 5 18 5 47 1 29 -4 368 -8 753 -8 641 -1 703 0 715 16 13
15 14 15 17 -2 2 -9 0 -20 -5 -24z m-1255 22 c-10 -2 -28 -2 -40 0 -13 2 -5 4
17 4 22 1 32 -1 23 -4z m80 0 c-10 -2 -28 -2 -40 0 -13 2 -5 4 17 4 22 1 32
-1 23 -4z m605 0 c-7 -2 -19 -2 -25 0 -7 3 -2 5 12 5 14 0 19 -2 13 -5z m2652
-1 c-14 -10 -107 -121 -127 -152 -9 -14 -51 -61 -92 -104 -42 -44 -74 -81 -72
-83 2 -2 52 49 112 114 213 229 194 213 255 212 l54 -1 -46 -8 c-57 -10 -75
-21 -118 -74 -18 -22 -86 -97 -151 -166 -64 -69 -162 -174 -216 -235 -54 -60
-106 -117 -114 -125 -8 -9 -69 -74 -136 -146 -66 -71 -181 -194 -255 -273 -73
-80 -161 -174 -193 -210 -65 -72 -70 -77 -106 -106 -34 -27 -29 -21 86 102 56
59 161 173 233 253 73 80 184 199 248 266 113 118 169 188 108 134 -16 -14
-39 -36 -51 -50 -12 -14 -55 -59 -95 -100 -41 -42 -119 -125 -173 -185 -55
-61 -173 -187 -262 -281 -90 -94 -173 -181 -184 -194 -11 -13 -23 -21 -26 -18
-3 3 19 32 49 64 123 135 300 329 422 464 72 80 180 197 240 260 91 95 228
244 408 444 118 131 191 206 201 206 7 0 7 -3 1 -8z m118 1 c-13 -2 -35 -2
-50 0 -16 2 -5 4 22 4 28 0 40 -2 28 -4z m110 0 c-7 -2 -19 -2 -25 0 -7 3 -2
5 12 5 14 0 19 -2 13 -5z m600 0 c-7 -2 -19 -2 -25 0 -7 3 -2 5 12 5 14 0 19
-2 13 -5z m-3137 -315 c-2 -40 -5 -487 -7 -993 -1 -506 -5 -855 -9 -775 -3 80
-7 359 -8 620 -2 261 -5 620 -8 798 l-5 323 -347 -1 c-190 0 -348 -3 -351 -5
-2 -3 -6 -395 -8 -873 -2 -477 -7 -955 -11 -1062 l-7 -195 -6 170 c-3 94 -6
555 -7 1025 l-2 855 -98 92 -97 92 488 1 487 0 -4 -72z m4377 36 c472 -4 856
-8 854 -11 -5 -4 -183 -9 -596 -18 -134 -2 -246 -7 -249 -10 -3 -3 80 -6 184
-7 104 -1 198 -3 209 -4 11 -1 92 -3 180 -4 119 -2 147 -5 110 -10 -27 -5
-604 -9 -1280 -9 l-1230 -1 -255 -266 c-140 -147 -313 -328 -384 -403 -113
-118 -341 -355 -835 -866 -222 -229 -745 -758 -776 -784 -32 -27 124 145 264
291 57 60 81 92 77 103 -3 9 -2 13 3 10 5 -3 11 5 13 17 2 12 10 23 18 25 13
4 13 3 0 -6 -8 -5 -12 -12 -10 -15 3 -2 14 2 24 10 11 8 16 14 10 14 -5 0 -15
4 -23 9 -11 7 -10 14 5 37 10 16 -56 -42 -147 -128 -92 -87 -170 -158 -173
-158 -4 0 55 64 131 143 77 78 182 187 234 242 52 55 229 242 394 415 165 174
458 481 650 685 534 563 645 678 674 698 24 16 62 17 546 12 286 -3 906 -8
1378 -11z m934 -20 c-3 -3 -12 -4 -19 -1 -8 3 -5 6 6 6 11 1 17 -2 13 -5z
m101 -1 c-16 -2 -40 -2 -55 0 -16 2 -3 4 27 4 30 0 43 -2 28 -4z m-211 -816
c3 -4 -545 -7 -1218 -7 l-1224 0 -99 -103 c-216 -224 -347 -357 -351 -357 -8
0 34 47 138 154 53 55 97 106 97 113 0 7 3 12 8 11 4 -2 25 17 47 41 87 97
132 141 156 151 26 11 2434 8 2446 -3z m-4233 -342 c-4 -8 -11 -15 -16 -15 -6
0 -5 6 2 15 7 8 14 15 16 15 2 0 1 -7 -2 -15z m1306 -168 c0 -2 -19 -21 -42
-42 l-43 -40 40 43 c36 39 45 47 45 39z m-140 -151 c0 -2 -8 -10 -17 -17 -16
-13 -17 -12 -4 4 13 16 21 21 21 13z m1365 -66 c-27 -5 -93 -9 -145 -11 l-95
-2 65 -7 c57 -6 50 -7 -52 -8 l-118 -2 -2 -387 c-2 -214 -3 -410 -4 -438 -4
-118 -9 -53 -14 190 l-6 260 -3 -315 c-3 -230 -6 -297 -12 -250 -5 36 -10 271
-11 523 l-3 457 225 -1 c148 -1 208 -4 175 -9z m82 4 c-3 -3 -12 -4 -19 -1 -8
3 -5 6 6 6 11 1 17 -2 13 -5z m-1557 -58 c0 -2 -7 -7 -16 -10 -8 -3 -12 -2 -9
4 6 10 25 14 25 6z m-59 -59 c-10 -9 -11 -8 -5 6 3 10 9 15 12 12 3 -3 0 -11
-7 -18z m-1974 -309 c-3 -7 -5 -2 -5 12 0 14 2 19 5 13 2 -7 2 -19 0 -25z
m-750 -300 c-2 -13 -4 -5 -4 17 -1 22 1 32 4 23 2 -10 2 -28 0 -40z m7210
-805 c-3 -10 -5 -2 -5 17 0 19 2 27 5 18 2 -10 2 -26 0 -35z m-11 -50 c-44
-201 -46 -232 -14 -163 30 63 33 37 8 -61 -33 -127 -73 -224 -140 -333 -104
-171 -220 -297 -331 -363 -62 -36 -112 -54 -91 -32 6 7 12 21 12 31 0 10 7 18
15 18 8 0 15 5 15 10 0 14 3 15 -118 -45 -61 -30 -117 -55 -124 -55 -7 0 12
12 42 27 232 111 469 352 584 596 50 106 83 195 113 302 15 52 29 95 31 95 3
0 2 -12 -2 -27z m861 -315 c-3 -8 -6 -5 -6 6 -1 11 2 17 5 13 3 -3 4 -12 1
-19z m-48 -150 c-6 -18 -14 -42 -19 -53 -4 -11 -18 -49 -31 -85 -69 -198 -234
-478 -387 -655 -65 -75 -176 -186 -196 -197 -12 -6 7 17 40 51 34 33 60 61 58
61 -3 0 18 24 45 53 88 94 103 112 117 140 8 15 19 27 24 27 6 0 10 6 10 14 0
8 3 16 8 18 9 4 140 222 178 298 16 30 32 58 37 61 5 3 8 8 8 10 -2 14 13 49
21 49 5 0 6 5 3 10 -4 6 -3 16 3 23 5 7 19 41 32 77 33 90 49 130 55 130 2 0
-1 -15 -6 -32z m-704 -1054 c-27 -25 -59 -50 -70 -56 -20 -10 -20 -10 0 8 60
56 106 94 113 94 4 -1 -15 -21 -43 -46z m-105 -84 c-8 -5 -19 -10 -25 -10 -5
0 -3 5 5 10 8 5 20 10 25 10 6 0 3 -5 -5 -10z m-80 -60 c-14 -10 -27 -16 -30
-13 -3 3 1 8 8 10 7 3 18 11 25 18 7 7 14 11 17 8 3 -2 -6 -13 -20 -23z
m-7128 -662 c-7 -7 -12 -8 -12 -2 0 6 3 14 7 17 3 4 9 5 12 2 2 -3 -1 -11 -7
-17z"/>
<path d="M3999 7858 c-30 -34 -64 -73 -76 -86 -13 -14 -23 -26 -23 -28 0 -6
30 8 30 15 0 3 30 38 65 76 57 62 74 85 61 85 -2 0 -27 -28 -57 -62z"/>
<path d="M6393 7953 c9 -2 23 -2 30 0 6 3 -1 5 -18 5 -16 0 -22 -2 -12 -5z"/>
</g>
</svg>
